<svg xmlns="http://www.w3.org/2000/svg" viewBox="0 0 620 700" width="100%" style="max-width:620px" font-family="Segoe UI, Helvetica, Arial, sans-serif">
<title>Ví dụ Nối Lương: Thục B4→B9 bị Ngụy cắt tại B7</title>
<rect x="0" y="0" width="620" height="700" rx="10" fill="#ffffff" stroke="#d8d8d8"/>
<text x="30" y="34" font-size="18" fill="#a83c3c" font-weight="700" text-anchor="start" >Ví dụ: Thục chiếm B4→B9, Ngụy cắt tại B7</text>
<defs><pattern id="cutoff" width="8" height="8" patternTransform="rotate(45)" patternUnits="userSpaceOnUse"><line x1="0" y1="0" x2="0" y2="8" stroke="#c0392b" stroke-width="3"/></pattern></defs>
<text x="172.0" y="58" font-size="14" fill="#666666" font-weight="700" text-anchor="middle" >A</text>
<text x="236.0" y="58" font-size="14" fill="#666666" font-weight="700" text-anchor="middle" >B</text>
<text x="300.0" y="58" font-size="14" fill="#666666" font-weight="700" text-anchor="middle" >C</text>
<text x="124" y="107.0" font-size="14" fill="#666666" font-weight="700" text-anchor="end" >3</text>
<text x="124" y="171.0" font-size="14" fill="#666666" font-weight="700" text-anchor="end" >4</text>
<text x="124" y="235.0" font-size="14" fill="#666666" font-weight="700" text-anchor="end" >5</text>
<text x="124" y="299.0" font-size="14" fill="#666666" font-weight="700" text-anchor="end" >6</text>
<text x="124" y="363.0" font-size="14" fill="#666666" font-weight="700" text-anchor="end" >7</text>
<text x="124" y="427.0" font-size="14" fill="#666666" font-weight="700" text-anchor="end" >8</text>
<text x="124" y="491.0" font-size="14" fill="#666666" font-weight="700" text-anchor="end" >9</text>
<rect x="140" y="70" width="64" height="64" rx="0" fill="#f7f6f2" stroke="#999999" stroke-width="1"/>
<text x="172.0" y="107.0" font-size="10" fill="#00000099" font-weight="normal" text-anchor="middle" >A3</text>
<rect x="204" y="70" width="64" height="64" rx="0" fill="#e8e2d0" stroke="#999999" stroke-width="1"/>
<rect x="204" y="70" width="64" height="64" rx="0" fill="#e8e2d0" stroke="#8a6d3b" stroke-width="2" stroke-dasharray="4,3"/>
<text x="236.0" y="107.0" font-size="12" fill="#5a4726" font-weight="700" text-anchor="middle" >Trì</text>
<rect x="268" y="70" width="64" height="64" rx="0" fill="#f7f6f2" stroke="#999999" stroke-width="1"/>
<text x="300.0" y="107.0" font-size="10" fill="#00000099" font-weight="normal" text-anchor="middle" >C3</text>
<rect x="140" y="134" width="64" height="64" rx="0" fill="#f7f6f2" stroke="#999999" stroke-width="1"/>
<text x="172.0" y="171.0" font-size="10" fill="#00000099" font-weight="normal" text-anchor="middle" >A4</text>
<rect x="204" y="134" width="64" height="64" rx="0" fill="#a9d18e" stroke="#999999" stroke-width="1"/>
<text x="236.0" y="171.0" font-size="10" fill="#00000099" font-weight="normal" text-anchor="middle" >B4</text>
<rect x="268" y="134" width="64" height="64" rx="0" fill="#f7f6f2" stroke="#999999" stroke-width="1"/>
<text x="300.0" y="171.0" font-size="10" fill="#00000099" font-weight="normal" text-anchor="middle" >C4</text>
<rect x="140" y="198" width="64" height="64" rx="0" fill="#f7f6f2" stroke="#999999" stroke-width="1"/>
<text x="172.0" y="235.0" font-size="10" fill="#00000099" font-weight="normal" text-anchor="middle" >A5</text>
<rect x="204" y="198" width="64" height="64" rx="0" fill="#a9d18e" stroke="#999999" stroke-width="1"/>
<text x="236.0" y="235.0" font-size="10" fill="#00000099" font-weight="normal" text-anchor="middle" >B5</text>
<rect x="268" y="198" width="64" height="64" rx="0" fill="#f7f6f2" stroke="#999999" stroke-width="1"/>
<text x="300.0" y="235.0" font-size="10" fill="#00000099" font-weight="normal" text-anchor="middle" >C5</text>
<rect x="140" y="262" width="64" height="64" rx="0" fill="#f7f6f2" stroke="#999999" stroke-width="1"/>
<text x="172.0" y="299.0" font-size="10" fill="#00000099" font-weight="normal" text-anchor="middle" >A6</text>
<rect x="204" y="262" width="64" height="64" rx="0" fill="#a9d18e" stroke="#999999" stroke-width="1"/>
<text x="236.0" y="299.0" font-size="10" fill="#00000099" font-weight="normal" text-anchor="middle" >B6</text>
<rect x="268" y="262" width="64" height="64" rx="0" fill="#f7f6f2" stroke="#999999" stroke-width="1"/>
<text x="300.0" y="299.0" font-size="10" fill="#00000099" font-weight="normal" text-anchor="middle" >C6</text>
<rect x="140" y="326" width="64" height="64" rx="0" fill="#f7f6f2" stroke="#999999" stroke-width="1"/>
<text x="172.0" y="363.0" font-size="10" fill="#00000099" font-weight="normal" text-anchor="middle" >A7</text>
<rect x="204" y="326" width="64" height="64" rx="0" fill="#f4b183" stroke="#999999" stroke-width="1"/>
<text x="236.0" y="363.0" font-size="10" fill="#00000099" font-weight="normal" text-anchor="middle" >B7</text>
<rect x="268" y="326" width="64" height="64" rx="0" fill="#f4b183" stroke="#999999" stroke-width="1"/>
<text x="300.0" y="363.0" font-size="10" fill="#00000099" font-weight="normal" text-anchor="middle" >C7</text>
<rect x="140" y="390" width="64" height="64" rx="0" fill="#f7f6f2" stroke="#999999" stroke-width="1"/>
<text x="172.0" y="427.0" font-size="10" fill="#00000099" font-weight="normal" text-anchor="middle" >A8</text>
<rect x="204" y="390" width="64" height="64" rx="0" fill="#a9d18e" stroke="#999999" stroke-width="1"/>
<rect x="204" y="390" width="64" height="64" rx="0" fill="url(#cutoff)" stroke="#c0392b" stroke-width="2"/>
<text x="236.0" y="427.0" font-size="10" fill="#00000099" font-weight="normal" text-anchor="middle" >B8</text>
<rect x="268" y="390" width="64" height="64" rx="0" fill="#f7f6f2" stroke="#999999" stroke-width="1"/>
<text x="300.0" y="427.0" font-size="10" fill="#00000099" font-weight="normal" text-anchor="middle" >C8</text>
<rect x="140" y="454" width="64" height="64" rx="0" fill="#f7f6f2" stroke="#999999" stroke-width="1"/>
<text x="172.0" y="491.0" font-size="10" fill="#00000099" font-weight="normal" text-anchor="middle" >A9</text>
<rect x="204" y="454" width="64" height="64" rx="0" fill="#a9d18e" stroke="#999999" stroke-width="1"/>
<rect x="204" y="454" width="64" height="64" rx="0" fill="url(#cutoff)" stroke="#c0392b" stroke-width="2"/>
<text x="236.0" y="491.0" font-size="10" fill="#00000099" font-weight="normal" text-anchor="middle" >B9</text>
<rect x="268" y="454" width="64" height="64" rx="0" fill="#f7f6f2" stroke="#999999" stroke-width="1"/>
<text x="300.0" y="491.0" font-size="10" fill="#00000099" font-weight="normal" text-anchor="middle" >C9</text>
<defs><marker id="arrow" viewBox="0 0 10 10" refX="8" refY="5" markerWidth="6" markerHeight="6" orient="auto-start-reverse"><path d="M0,0 L10,5 L0,10 z" fill="#333333"/></marker></defs>
<line x1="236.0" y1="166.0" x2="236.0" y2="102.0" stroke="#2a7a3c" stroke-width="3" marker-end="url(#arrow)"/>
<line x1="236.0" y1="166.0" x2="236.0" y2="326" stroke="#2a7a3c" stroke-width="3"/>
<text x="250.0" y="363.0" font-size="13" fill="#c0392b" font-weight="700" text-anchor="start" >✗ đường lương bị cắt</text>
<rect x="30" y="534" width="20" height="20" rx="0" fill="#a9d18e" stroke="#999999" stroke-width="1"/>
<text x="58" y="549" font-size="13" fill="#222222" font-weight="normal" text-anchor="start" >Thục đang chiếm (B4–B6, còn nối Trì)</text>
<rect x="30" y="560" width="20" height="20" rx="0" fill="#f4b183" stroke="#999999" stroke-width="1"/>
<text x="58" y="575" font-size="13" fill="#222222" font-weight="normal" text-anchor="start" >Ngụy chiếm (B7, C7) — cắt đường</text>
<rect x="30" y="586" width="20" height="20" rx="0" fill="#a9d18e" stroke="#999999" stroke-width="1"/>
<rect x="30" y="586" width="20" height="20" rx="0" fill="url(#cutoff)" stroke="#c0392b" stroke-width="2"/>
<text x="58" y="601" font-size="13" fill="#222222" font-weight="normal" text-anchor="start" >Thục mất kết nối (B8, B9) — chết đói cuối Go, đất hóa Ô Trắng</text>
<text x="30" y="636" font-size="12" fill="#666666" font-weight="normal" text-anchor="start" >Dù B8/B9 thắng hay thua trận trong Turn đó, mất kết nối về Trì là chết đói sạch + mất màu.</text>
</svg>
